<svg width="16" height="17" viewBox="0 0 16 17" fill="none" xmlns="http://www.w3.org/2000/svg">
<path d="M16 8.46986C16 10.7064 15.1571 12.8513 13.6569 14.4327C12.1566 16.0142 10.1217 16.9026 8 16.9026C5.87827 16.9026 3.84344 16.0142 2.34315 14.4327C0.842855 12.8513 0 10.7064 0 8.46986C0 6.23335 0.842855 4.08845 2.34315 2.50699C3.84344 0.925544 5.87827 0.0370941 8 0.0370941C10.1217 0.0370941 12.1566 0.925544 13.6569 2.50699C15.1571 4.08845 16 6.23335 16 8.46986ZM8 4.25348C7.87361 4.25355 7.74863 4.28154 7.63312 4.33562C7.51761 4.38971 7.41413 4.4687 7.32934 4.5675C7.24456 4.66631 7.18035 4.78274 7.14084 4.9093C7.10134 5.03586 7.08743 5.16973 7.1 5.3023L7.45 8.99902C7.46176 9.14424 7.5248 9.27953 7.62664 9.37811C7.72849 9.47669 7.86173 9.53139 8 9.53139C8.13827 9.53139 8.27151 9.47669 8.37336 9.37811C8.4752 9.27953 8.53824 9.14424 8.55 8.99902L8.9 5.3023C8.91257 5.16973 8.89866 5.03586 8.85915 4.9093C8.81965 4.78274 8.75544 4.66631 8.67066 4.5675C8.58587 4.4687 8.48239 4.38971 8.36688 4.33562C8.25137 4.28154 8.12639 4.25355 8 4.25348ZM8.002 10.5781C7.73678 10.5781 7.48243 10.6891 7.29489 10.8868C7.10736 11.0845 7.002 11.3526 7.002 11.6321C7.002 11.9117 7.10736 12.1798 7.29489 12.3775C7.48243 12.5752 7.73678 12.6862 8.002 12.6862C8.26722 12.6862 8.52157 12.5752 8.70911 12.3775C8.89664 12.1798 9.002 11.9117 9.002 11.6321C9.002 11.3526 8.89664 11.0845 8.70911 10.8868C8.52157 10.6891 8.26722 10.5781 8.002 10.5781Z" fill="#495057"/>
</svg>
